<?xml version="1.0" encoding="UTF-8"?>
<svg version="1.1" xmlns="http://www.w3.org/2000/svg" width="436" height="403">
<path d="M0 0 C143.88 0 287.76 0 436 0 C436 132.99 436 265.98 436 403 C292.12 403 148.24 403 0 403 C0 270.01 0 137.02 0 0 Z " fill="#FECF52" transform="translate(0,0)"/>
<path d="M0 0 C3.06571765 0.61314353 4.43174529 1.12533718 6.5 3.5 C6.9375 7 6.9375 7 6.5 10.5 C6.00653076 10.93932861 5.51306152 11.37865723 5.00463867 11.83129883 C2.76186428 14.31862042 3.06573848 16.39954066 2.98828125 19.69921875 C2.93510742 21.51196289 2.93510742 21.51196289 2.88085938 23.36132812 C2.85830078 24.62396484 2.83574219 25.88660156 2.8125 27.1875 C2.77833984 28.46173828 2.74417969 29.73597656 2.70898438 31.04882812 C2.62639216 34.19913103 2.55727665 37.34915157 2.5 40.5 C5.47 40.5 8.44 40.5 11.5 40.5 C11.5 35.88 11.5 31.26 11.5 26.5 C10.18 25.84 8.86 25.18 7.5 24.5 C6.4375 21.6875 6.4375 21.6875 6.5 18.5 C8.625 15.5625 8.625 15.5625 11.5 13.5 C15.07082798 13.58501971 16.49379907 14.49586605 19.5 16.5 C19.875 19.9375 19.875 19.9375 19.5 23.5 C19.00113281 23.92023438 18.50226563 24.34046875 17.98828125 24.7734375 C15.62018533 27.52067738 16.2153635 30.15820704 16.3125 33.6875 C16.33957031 34.95980469 16.36664063 36.23210937 16.39453125 37.54296875 C16.44673828 39.00669922 16.44673828 39.00669922 16.5 40.5 C20.955 42.48 20.955 42.48 25.5 44.5 C25.53758423 43.09923218 25.53758423 43.09923218 25.57592773 41.67016602 C25.67086928 38.21674811 25.77011258 34.7635104 25.87231445 31.31030273 C25.91571813 29.81360731 25.95738913 28.31686061 25.99731445 26.82006836 C26.05488616 24.67285688 26.11861716 22.52590479 26.18359375 20.37890625 C26.22025146 19.0854126 26.25690918 17.79191895 26.29467773 16.45922852 C26.5 13.5 26.5 13.5 27.5 12.5 C29.30624118 12.39074168 31.11634837 12.3441499 32.92578125 12.32421875 C34.03244141 12.30037109 35.13910156 12.27652344 36.27929688 12.25195312 C38.62286529 12.20920146 40.96667075 12.17783358 43.31054688 12.15820312 C44.42107422 12.13048828 45.53160156 12.10277344 46.67578125 12.07421875 C48.20585815 12.05234497 48.20585815 12.05234497 49.7668457 12.0300293 C53.15895826 11.37221095 54.16599646 9.95148386 56.5 7.5 C62.71428571 7.71428571 62.71428571 7.71428571 65.5 10.5 C66.1700702 16.64231015 66.1700702 16.64231015 63.9375 19.5 C60.53627009 20.89537637 58.0344893 20.24768043 54.5 19.5 C54.005 17.52 54.005 17.52 53.5 15.5 C45.58 15.5 37.66 15.5 29.5 15.5 C29.5 26.39 29.5 37.28 29.5 48.5 C34.718125 48.396875 39.93625 48.29375 45.3125 48.1875 C46.95581299 48.16260498 48.59912598 48.13770996 50.29223633 48.11206055 C51.58411865 48.07894775 52.87600098 48.04583496 54.20703125 48.01171875 C54.88262085 48.00547485 55.55821045 47.99923096 56.25427246 47.99279785 C60.07318744 47.92080589 60.07318744 47.92080589 63.23706055 45.99145508 C63.65383057 45.4992749 64.07060059 45.00709473 64.5 44.5 C67.93858351 44.13158034 70.40131981 43.91632615 73.5 45.5625 C75.13529445 48.73088299 74.3403752 51.13849919 73.5 54.5 C72.25 56.4375 72.25 56.4375 70.5 57.5 C68.0625 57.9375 68.0625 57.9375 65.5 57.5 C64.9215332 56.84354492 64.34306641 56.18708984 63.74707031 55.51074219 C60.75974973 52.83760308 58.95113485 52.96274791 54.984375 52.890625 C53.73398437 52.85839844 52.48359375 52.82617188 51.1953125 52.79296875 C49.89335937 52.77878906 48.59140625 52.76460937 47.25 52.75 C45.93257813 52.72035156 44.61515625 52.69070312 43.2578125 52.66015625 C40.00514657 52.58944612 36.75319807 52.53675214 33.5 52.5 C34.49 55.47 35.48 58.44 36.5 61.5 C49.37 61.5 62.24 61.5 75.5 61.5 C75.83 60.51 76.16 59.52 76.5 58.5 C79.29870027 57.10064987 81.40498792 57.24734595 84.5 57.5 C86.375 58.625 86.375 58.625 87.5 60.5 C88.04624158 64.16762206 87.97898298 65.8258758 85.8125 68.875 C83.5 70.5 83.5 70.5 80.9375 70.9375 C78.11161952 70.43029068 77.178231 69.79652664 75.5 67.5 C75.5 66.84 75.5 66.18 75.5 65.5 C59.66 65.995 59.66 65.995 43.5 66.5 C47.46 69.965 47.46 69.965 51.5 73.5 C51.5 74.16 51.5 74.82 51.5 75.5 C58.17790367 75.49530089 58.17790367 75.49530089 63.75 72.4375 C64.3275 71.798125 64.905 71.15875 65.5 70.5 C68.70195936 70.04257723 70.57553259 69.94531955 73.375 71.625 C75.02854531 74.38090884 74.89365568 76.35075452 74.5 79.5 C72.85934577 82.14327625 71.54658485 82.48513249 68.5625 83.4375 C67.551875 83.458125 66.54125 83.47875 65.5 83.5 C64.88125 82.860625 64.2625 82.22125 63.625 81.5625 C61.14510755 79.15554556 60.56371241 79.22093235 57.25 79.25 C56.0125 79.3325 54.775 79.415 53.5 79.5 C53.17 82.8 52.84 86.1 52.5 89.5 C54.06492187 89.48839844 55.62984375 89.47679687 57.2421875 89.46484375 C59.28645714 89.45546637 61.33072807 89.44636611 63.375 89.4375 C64.92380859 89.42493164 64.92380859 89.42493164 66.50390625 89.41210938 C67.49003906 89.40888672 68.47617187 89.40566406 69.4921875 89.40234375 C70.40339355 89.39710693 71.31459961 89.39187012 72.25341797 89.38647461 C74.5 89.5 74.5 89.5 76.5 90.5 C76.5 99.08 76.5 107.66 76.5 116.5 C77.82 117.16 79.14 117.82 80.5 118.5 C81.5 121.375 81.5 121.375 81.5 124.5 C79.9375 126.875 79.9375 126.875 77.5 128.5 C74.32764724 128.95319325 72.43512264 129.02990283 69.625 127.4375 C67.91803605 124.49772876 68.31200234 121.82129197 68.5 118.5 C69.82 117.84 71.14 117.18 72.5 116.5 C72.5 108.91 72.5 101.32 72.5 93.5 C67.0859375 93.561875 67.0859375 93.561875 61.5625 93.625 C60.44367432 93.62258301 59.32484863 93.62016602 58.17211914 93.61767578 C51.49560058 93.80534774 47.76986306 95.14960667 42.46313477 99.16845703 C38.39597083 101.92710796 34.18777159 100.85603329 29.5 100.5 C29.5 106.11 29.5 111.72 29.5 117.5 C31.48 117.995 31.48 117.995 33.5 118.5 C34.89935013 121.29870027 34.75265405 123.40498792 34.5 126.5 C33.375 128.375 33.375 128.375 31.5 129.5 C28.17439432 129.92454541 26.16319551 129.81414524 23.125 128.375 C21.5 126.5 21.5 126.5 21.0625 123.5 C21.5 120.5 21.5 120.5 22.875 118.625 C24.5 117.5 24.5 117.5 26.5 117.5 C26.5 111.89 26.5 106.28 26.5 100.5 C23.2 100.5 19.9 100.5 16.5 100.5 C16.5 110.4 16.5 120.3 16.5 130.5 C17.82 130.83 19.14 131.16 20.5 131.5 C21.89935013 134.29870027 21.75265405 136.40498792 21.5 139.5 C20.4375 141.375 20.4375 141.375 18.5 142.5 C12.59045226 143.13316583 12.59045226 143.13316583 9.5625 141.375 C7.99577755 138.61019567 8.11023565 136.61811483 8.5 133.5 C9.875 131.625 9.875 131.625 11.5 130.5 C12.16 130.5 12.82 130.5 13.5 130.5 C13.5 120.6 13.5 110.7 13.5 100.5 C10.2 100.5 6.9 100.5 3.5 100.5 C3.5 106.11 3.5 111.72 3.5 117.5 C5.48 118.49 5.48 118.49 7.5 119.5 C8.5 120.5 8.5 120.5 8.75 123.375 C8.5 126.5 8.5 126.5 7.4375 128.375 C4.3930714 130.14273274 1.9368988 129.86823916 -1.5 129.5 C-3.4375 128.375 -3.4375 128.375 -4.5 126.5 C-4.91062354 123.21501168 -5.1171336 121.34154581 -3.125 118.625 C-1.5 117.5 -1.5 117.5 0.5 117.5 C0.5 111.89 0.5 106.28 0.5 100.5 C-3.46 100.5 -7.42 100.5 -11.5 100.5 C-11.5 109.74 -11.5 118.98 -11.5 128.5 C-24.25 128.75 -24.25 128.75 -28.25292969 128.79785156 C-29.29868164 128.8284668 -30.34443359 128.85908203 -31.421875 128.890625 C-32.49018555 128.91157227 -33.55849609 128.93251953 -34.65917969 128.95410156 C-38.12781171 129.62064171 -39.15102954 130.96108583 -41.5 133.5 C-44.67442218 133.43521587 -46.69571146 132.96700625 -49.4375 131.375 C-51.19646638 128.27094169 -50.34936588 125.83679452 -49.5 122.5 C-46.03076119 120.18717413 -44.57794425 120.07521414 -40.5 120.5 C-38.625 121.875 -38.625 121.875 -37.5 123.5 C-37.5 124.16 -37.5 124.82 -37.5 125.5 C-29.91 125.5 -22.32 125.5 -14.5 125.5 C-14.5 117.25 -14.5 109 -14.5 100.5 C-17.14 100.17 -19.78 99.84 -22.5 99.5 C-23.31339844 98.99339844 -24.12679687 98.48679687 -24.96484375 97.96484375 C-28.63013169 95.84699633 -31.90352771 96.02323073 -36.0625 96.0625 C-36.81724609 96.04251953 -37.57199219 96.02253906 -38.34960938 96.00195312 C-42.0188887 96.00518597 -44.00000205 96.05772677 -46.80078125 98.53515625 C-47.36152344 99.18355469 -47.92226562 99.83195312 -48.5 100.5 C-54.71428571 100.28571429 -54.71428571 100.28571429 -57.5 97.5 C-57.9667512 93.92157414 -57.90228636 92.12756672 -55.9375 89.0625 C-53.5 87.5 -53.5 87.5 -49.75 87.75 C-48.14125 88.12125 -48.14125 88.12125 -46.5 88.5 C-46.17 89.82 -45.84 91.14 -45.5 92.5 C-39.065 92.005 -39.065 92.005 -32.5 91.5 C-33.49 89.85 -34.48 88.2 -35.5 86.5 C-35.5 85.18 -35.5 83.86 -35.5 82.5 C-43.09 82.5 -50.68 82.5 -58.5 82.5 C-58.5 83.49 -58.5 84.48 -58.5 85.5 C-61.5 87.5 -61.5 87.5 -65.0625 87.25 C-68.5 86.5 -68.5 86.5 -70.5 84.5 C-71.1700702 78.35768985 -71.1700702 78.35768985 -68.9375 75.5 C-65.53627009 74.10462363 -63.0344893 74.75231957 -59.5 75.5 C-59.17 76.82 -58.84 78.14 -58.5 79.5 C-51.24 79.17 -43.98 78.84 -36.5 78.5 C-35.84 75.53 -35.18 72.56 -34.5 69.5 C-38.13 69.5 -41.76 69.5 -45.5 69.5 C-45.5 70.49 -45.5 71.48 -45.5 72.5 C-48.5 74.5 -48.5 74.5 -52.0625 74.3125 C-55.5 73.5 -55.5 73.5 -57.5 70.5 C-57.875 67.5 -57.875 67.5 -57.5 64.5 C-55.41640793 62.1848977 -54.05564772 61.59723835 -51 61.0625 C-48.5 61.5 -48.5 61.5 -46.71484375 63.4921875 C-43.18859245 66.68882448 -39.90454984 66.10636846 -35.3359375 65.95703125 C-31.36544765 65.31715892 -29.96271434 63.59598374 -27.5 60.5 C-23.33806739 57.38352893 -19.75618548 55.98720142 -14.5 56.5 C-14.5 55.84 -14.5 55.18 -14.5 54.5 C-28.03 54.5 -41.56 54.5 -55.5 54.5 C-55.5 45.92 -55.5 37.34 -55.5 28.5 C-56.82 27.84 -58.14 27.18 -59.5 26.5 C-60.5 25.5 -60.5 25.5 -60.8125 22.125 C-60.5 18.5 -60.5 18.5 -58.875 16.5 C-55.65282903 15.14329643 -53.82051976 15.51090901 -50.5 16.5 C-48.5625 17.625 -48.5625 17.625 -47.5 19.5 C-47.625 23.0625 -47.625 23.0625 -48.5 26.5 C-49.49 27.16 -50.48 27.82 -51.5 28.5 C-52.00904384 30.9157113 -52.00904384 30.9157113 -52.01171875 33.7265625 C-52.04483154 34.65549316 -52.07794434 35.58442383 -52.11206055 36.54150391 C-52.13695557 37.72405762 -52.16185059 38.90661133 -52.1875 40.125 C-52.290625 43.87875 -52.39375 47.6325 -52.5 51.5 C-39.96 51.5 -27.42 51.5 -14.5 51.5 C-14.5 43.25 -14.5 35 -14.5 26.5 C-15.82 25.84 -17.14 25.18 -18.5 24.5 C-19.5625 21.6875 -19.5625 21.6875 -19.5 18.5 C-17.375 15.5625 -17.375 15.5625 -14.5 13.5 C-10.92917202 13.58501971 -9.50620093 14.49586605 -6.5 16.5 C-5.83810888 22.56733524 -5.83810888 22.56733524 -7.875 25.4375 C-9.5 26.5 -9.5 26.5 -11.5 26.5 C-11.5 34.09 -11.5 41.68 -11.5 49.5 C-2.6048692 43.93715506 -2.6048692 43.93715506 -1.38647461 39.04321289 C-1.39171143 37.8649292 -1.39694824 36.68664551 -1.40234375 35.47265625 C-1.38623047 34.18681641 -1.37011719 32.90097656 -1.35351562 31.57617188 C-1.38053916 30.23826128 -1.40854597 28.90037021 -1.4375 27.5625 C-1.4344211 26.19725031 -1.42729562 24.83200343 -1.41601562 23.46679688 C-1.4042686 20.14238885 -1.4335214 16.82361198 -1.5 13.5 C-2.139375 13.22800781 -2.77875 12.95601562 -3.4375 12.67578125 C-5.5 11.5 -5.5 11.5 -6.5 8.6875 C-6.5 5.5 -6.5 5.5 -4.875 2.625 C-2.5 0.5 -2.5 0.5 0 0 Z " fill="#295D61" transform="translate(210.5,92.5)"/>
<path d="M0 0 C6.52557861 3.55025973 9.81707955 8.26147397 12.7734375 14.96484375 C13.09430139 16.27051295 13.38952498 17.58299164 13.6484375 18.90234375 C14.0196875 19.91296875 14.3909375 20.92359375 14.7734375 21.96484375 C18.11673219 23.15835687 18.11673219 23.15835687 21.7734375 23.96484375 C25.53592613 27.14205637 28.33406125 30.15487938 29.109375 35.11328125 C29.20482147 40.55373019 28.57068628 43.76788457 24.7734375 47.96484375 C20.60561145 50.43191947 17.51948241 51.34362775 12.69555664 51.36889648 C11.51735855 51.38158066 10.33916046 51.39426483 9.1252594 51.40733337 C7.86575974 51.40439774 6.60626007 51.4014621 5.30859375 51.3984375 C4.00192245 51.40367935 2.69525116 51.4089212 1.34898376 51.4143219 C-1.41059053 51.42323107 -4.16987508 51.42085543 -6.92944336 51.41088867 C-10.45115067 51.39940341 -13.97185457 51.41961307 -17.49343014 51.44880581 C-20.87197388 51.47165366 -24.25028726 51.46469749 -27.62890625 51.4609375 C-29.5151194 51.47778847 -29.5151194 51.47778847 -31.43943787 51.49497986 C-39.26528249 51.43283583 -44.17619226 50.80156808 -50.00390625 45.28125 C-54.0123455 39.22135363 -54.45707786 33.05579919 -53.2265625 25.96484375 C-50.76474475 20.29818689 -46.72228 17.09209349 -41.17578125 14.609375 C-39.2265625 13.96484375 -39.2265625 13.96484375 -36.0390625 13.71484375 C-32.62866016 12.80540313 -32.40763679 12.09259481 -30.6640625 9.15234375 C-30.25929687 8.43046875 -29.85453125 7.70859375 -29.4375 6.96484375 C-27.78625898 4.23763278 -25.8754374 2.70922478 -23.2265625 0.96484375 C-21.9271875 0.09859375 -21.9271875 0.09859375 -20.6015625 -0.78515625 C-13.86928265 -3.27859323 -6.56705927 -2.90826911 0 0 Z " fill="#FDCF55" transform="translate(231.2265625,138.03515625)"/>
<path d="M0 0 C3.68689047 -0.17550193 7.37269701 -0.2812482 11.0625 -0.375 C12.10083984 -0.42527344 13.13917969 -0.47554688 14.20898438 -0.52734375 C18.96230494 -0.61788319 23.10893788 -0.58433669 27.19140625 2.0546875 C31.253787 6.2323962 30.981855 11.73328281 30.95703125 17.25390625 C30.94236816 17.9514502 30.92770508 18.64899414 30.91259766 19.36767578 C30.87504656 21.4973595 30.9122698 23.61672755 30.95703125 25.74609375 C31.00772783 37.02064841 31.00772783 37.02064841 27.19140625 40.9453125 C22.25155444 44.13857385 16.73046828 43.64942677 11.0625 43.375 C9.99708984 43.34792969 8.93167969 43.32085937 7.83398438 43.29296875 C5.22053177 43.22265164 2.61134825 43.12430438 0 43 C-0.02187378 42.16021606 -0.02187378 42.16021606 -0.04418945 41.3034668 C-0.11871352 38.76411863 -0.21535581 36.22607922 -0.3125 33.6875 C-0.33505859 32.80642578 -0.35761719 31.92535156 -0.38085938 31.01757812 C-0.41630859 30.17001953 -0.45175781 29.32246094 -0.48828125 28.44921875 C-0.51446533 27.66893311 -0.54064941 26.88864746 -0.56762695 26.0847168 C-1.0931671 23.55078834 -2.0408526 22.63072223 -4 21 C-3.5155542 20.59225342 -3.0311084 20.18450684 -2.53198242 19.7644043 C-0.66889629 17.61866351 -0.58770927 16.57340154 -0.48828125 13.76953125 C-0.45283203 12.96708984 -0.41738281 12.16464844 -0.38085938 11.33789062 C-0.35830078 10.50451172 -0.33574219 9.67113281 -0.3125 8.8125 C-0.27833984 7.96751953 -0.24417969 7.12253906 -0.20898438 6.25195312 C-0.12658529 4.16843351 -0.06161355 2.08423784 0 0 Z " fill="#175362" transform="translate(25,259)"/>
<path d="M0 0 C18.52469304 -1.19836289 18.52469304 -1.19836289 23.953125 1.4296875 C27.25104184 4.88002907 28.40816345 8.347647 28.8125 13.0625 C28.56378366 17.02376263 27.59865161 18.90054462 24.875 21.75 C24.29492188 22.23984375 23.71484375 22.7296875 23.1171875 23.234375 C22.56417969 24.10835938 22.56417969 24.10835938 22 25 C23.02355396 29.54202072 25.15190337 33.67144631 27.125 37.875 C27.66382813 39.02742188 28.20265625 40.17984375 28.7578125 41.3671875 C29.16773438 42.23601562 29.57765625 43.10484375 30 44 C27.69 44 25.38 44 23 44 C22.76925781 43.49025635 22.53851563 42.9805127 22.30078125 42.45532227 C21.23179158 40.14173074 20.11700279 37.8532713 19 35.5625 C18.63777344 34.76005859 18.27554687 33.95761719 17.90234375 33.13085938 C17.52207031 32.36708984 17.14179688 31.60332031 16.75 30.81640625 C16.41484375 30.10943604 16.0796875 29.40246582 15.734375 28.67407227 C13.43184483 26.1166412 13.43184483 26.1166412 6 26 C6 31.94 6 37.88 6 44 C4.02 44 2.04 44 0 44 C0 37.73 0 31.46 0 25 C-0.99 24.67 -1.98 24.34 -3 24 C-2.67 22.68 -2.34 21.36 -2 20 C-1.34 20 -0.68 20 0 20 C0 13.4 0 6.8 0 0 Z " fill="#1E5762" transform="translate(387,258)"/>
<path d="M0 0 C1.134375 0.020625 2.26875 0.04125 3.4375 0.0625 C5.72079116 6.0055499 7.99892627 11.95055703 10.2734375 17.89697266 C11.04828367 19.92086826 11.82432192 21.94430788 12.6015625 23.96728516 C13.71665976 26.87023606 14.82750063 29.77478414 15.9375 32.6796875 C16.28748047 33.58806366 16.63746094 34.49643982 16.99804688 35.43234253 C17.31837891 36.27306305 17.63871094 37.11378357 17.96875 37.97998047 C18.25298828 38.72166473 18.53722656 39.463349 18.83007812 40.22750854 C19.4375 42.0625 19.4375 42.0625 19.4375 44.0625 C17.1275 44.0625 14.8175 44.0625 12.4375 44.0625 C11.1175 40.7625 9.7975 37.4625 8.4375 34.0625 C2.4975 33.7325 -3.4425 33.4025 -9.5625 33.0625 C-9.871875 34.50625 -10.18125 35.95 -10.5 37.4375 C-11.01733647 39.85173686 -11.45735234 41.85220467 -12.5625 44.0625 C-14.8725 44.0625 -17.1825 44.0625 -19.5625 44.0625 C-16.79626623 34.5650974 -16.79626623 34.5650974 -15.3125 31.375 C-14.24516316 28.08404475 -14.90690708 25.40602391 -15.5625 22.0625 C-14.3559375 21.7221875 -14.3559375 21.7221875 -13.125 21.375 C-12.279375 20.941875 -11.43375 20.50875 -10.5625 20.0625 C-10.17100934 18.40852783 -9.85189667 16.73735476 -9.5625 15.0625 C-8.76384359 12.63415279 -7.92801567 10.21782843 -7.0625 7.8125 C-6.6190625 6.56984375 -6.175625 5.3271875 -5.71875 4.046875 C-4.17925761 0.07332031 -4.17925761 0.07332031 0 0 Z " fill="#1D5662" transform="translate(260.5625,257.9375)"/>
<path d="M0 0 C3.56153923 1.73404388 5.9134501 3.61726001 8 7 C8.63226167 9.97992179 8.43170268 11.92411841 8 15 C6.02 15 4.04 15 2 15 C1.71125 14.030625 1.4225 13.06125 1.125 12.0625 C0.35785318 8.89335797 0.35785318 8.89335797 -2 8 C-3.64255791 7.87885079 -5.29052478 7.82459233 -6.9375 7.8125 C-8.25041016 7.79123047 -8.25041016 7.79123047 -9.58984375 7.76953125 C-12.26244335 7.83336651 -12.26244335 7.83336651 -15 10 C-15.42452608 12.75941949 -15.48045405 14.30267433 -13.875 16.6328125 C-10.47792877 19.10984361 -6.29772992 18.42590121 -2.2265625 18.49609375 C1.6025399 19.09410127 3.28647732 20.28139581 6 23 C6 23.66 6 24.32 6 25 C6.66 25 7.32 25 8 25 C9.19843259 36.58484839 9.19843259 36.58484839 5.5625 41.25 C-0.13921143 46.15584754 -8.99870001 44.49615512 -16 44 C-16 43.34 -16 42.68 -16 42 C-16.598125 41.731875 -17.19625 41.46375 -17.8125 41.1875 C-21.56716418 39.14925373 -21.56716418 39.14925373 -23 37 C-23.2529766 34.28184714 -23.1347974 31.74088051 -23 29 C-21.02 29 -19.04 29 -17 29 C-16.896875 29.78375 -16.79375 30.5675 -16.6875 31.375 C-16.22404978 34.33045181 -16.22404978 34.33045181 -13 36 C-13 36.66 -13 37.32 -13 38 C-11.4156683 37.91231752 -9.83246433 37.80412671 -8.25 37.6875 C-7.36828125 37.62949219 -6.4865625 37.57148438 -5.578125 37.51171875 C-2.6329748 36.92715106 -1.1662429 36.05668579 1 34 C1.58333333 31.5 1.58333333 31.5 1 29 C-0.12291566 27.25091699 -0.12291566 27.25091699 -2 26 C-4.70095664 25.68114722 -4.70095664 25.68114722 -7.6875 25.75 C-13.29262653 25.38222742 -16.64845208 24.27069809 -20.609375 20.2265625 C-22.80926614 16.70426488 -23.10813741 13.76451008 -22.7578125 9.66796875 C-21.63245428 5.70601173 -19.98253112 3.62639742 -16.6796875 1.19921875 C-11.19618619 -1.25476799 -5.81631055 -1.17405805 0 0 Z " fill="#1B5562" transform="translate(180,258)"/>
<path d="M0 0 C2.31 0 4.62 0 7 0 C7.33 6.27 7.66 12.54 8 19 C8.99902344 17.78441406 9.99804688 16.56882812 11.02734375 15.31640625 C12.33070159 13.73174815 13.63408851 12.14711397 14.9375 10.5625 C15.59685547 9.76005859 16.25621094 8.95761719 16.93554688 8.13085938 C17.56396484 7.36708984 18.19238281 6.60332031 18.83984375 5.81640625 C19.42113037 5.10943604 20.00241699 4.40246582 20.60131836 3.67407227 C22 2 22 2 23 1 C25.33297433 0.95907063 27.66705225 0.95758277 30 1 C26.75043705 6.22755778 22.86155776 10.76910929 18.828125 15.4140625 C16.61515721 18.0165587 16.61515721 18.0165587 17 22 C18.26050482 24.23492219 18.26050482 24.23492219 20.02734375 26.44140625 C20.65447266 27.27220703 21.28160156 28.10300781 21.92773438 28.95898438 C22.59095703 29.81814453 23.25417969 30.67730469 23.9375 31.5625 C25.2416843 33.26954084 26.54261953 34.97907029 27.83984375 36.69140625 C28.42113037 37.44623291 29.00241699 38.20105957 29.60131836 38.97875977 C31 41 31 41 32 44 C28.92578125 44.53125 28.92578125 44.53125 25 44 C22.24874415 41.51450344 20.26768995 38.55353437 18.1875 35.5 C17.06117838 33.9025788 15.92992561 32.30861917 14.79296875 30.71875 C14.3033667 30.00654297 13.81376465 29.29433594 13.30932617 28.56054688 C12.87724854 28.04556641 12.4451709 27.53058594 12 27 C11.34 27 10.68 27 10 27 C7.15385976 29.84614024 7.54420924 32.80369142 7.375 36.625 C7.31699219 37.68460937 7.31699219 37.68460937 7.2578125 38.765625 C7.16352276 40.50998524 7.08067109 42.25495691 7 44 C4.69 44 2.38 44 0 44 C-0.01981934 43.44014404 -0.03963867 42.88028809 -0.06005859 42.3034668 C-0.15537783 39.76434146 -0.26502753 37.22603112 -0.375 34.6875 C-0.4059375 33.80642578 -0.436875 32.92535156 -0.46875 32.01757812 C-0.50742187 31.17001953 -0.54609375 30.32246094 -0.5859375 29.44921875 C-0.6173584 28.66893311 -0.6487793 27.88864746 -0.68115234 27.0847168 C-0.89587889 24.69844232 -0.89587889 24.69844232 -3 22 C-2.34 21.34 -1.68 20.68 -1 20 C-0.63047951 17.87139338 -0.63047951 17.87139338 -0.5859375 15.4296875 C-0.54726563 14.53378906 -0.50859375 13.63789063 -0.46875 12.71484375 C-0.4378125 11.77769531 -0.406875 10.84054687 -0.375 9.875 C-0.33632813 8.93011719 -0.29765625 7.98523438 -0.2578125 7.01171875 C-0.16338654 4.67467625 -0.07781606 2.33764499 0 0 Z " fill="#235962" transform="translate(340,258)"/>
<path d="M0 0 C3.74951098 1.64561871 6.02140493 3.39160065 8 7 C8.6003079 10.44676786 8.50024693 13.54690658 8 17 C5.69 17 3.38 17 1 17 C0.896875 15.88625 0.79375 14.7725 0.6875 13.625 C0.460625 12.42875 0.23375 11.2325 0 10 C-3.33397306 7.77735129 -4.59514891 7.70324537 -8.5 7.6875 C-9.93859375 7.66236328 -9.93859375 7.66236328 -11.40625 7.63671875 C-14.48448263 8.06785675 -15.15453811 8.55481259 -17 11 C-17.46150301 13.47798469 -17.46150301 13.47798469 -17.3984375 16.25390625 C-17.40230469 17.27291016 -17.40617187 18.29191406 -17.41015625 19.34179688 C-17.39855469 20.40462891 -17.38695312 21.46746094 -17.375 22.5625 C-17.38660156 23.62919922 -17.39820313 24.69589844 -17.41015625 25.79492188 C-17.40628906 26.81263672 -17.40242188 27.83035156 -17.3984375 28.87890625 C-17.39505371 29.8129126 -17.39166992 30.74691895 -17.38818359 31.70922852 C-17.26008301 32.46518311 -17.13198242 33.2211377 -17 34 C-16.01 34.66 -15.02 35.32 -14 36 C-14 36.66 -14 37.32 -14 38 C-12.24908981 37.91245449 -10.49920449 37.80426627 -8.75 37.6875 C-7.77546875 37.62949219 -6.8009375 37.57148438 -5.796875 37.51171875 C-2.70134998 36.94535873 -1.25202193 36.16861371 1 34 C1.8042208 31.40144267 1.8042208 31.40144267 2 29 C3.98 29 5.96 29 8 29 C8.55885934 32.98187282 8.82212983 35.54838462 6.81640625 39.08984375 C2.92132686 43.33192353 -0.81282943 44.44818434 -6.39868164 44.71875 C-7.1539917 44.7290625 -7.90930176 44.739375 -8.6875 44.75 C-9.42411865 44.76546875 -10.1607373 44.7809375 -10.91967773 44.796875 C-14.93285561 44.68045874 -16.78912118 44.17644382 -19.89453125 41.578125 C-20.58933594 40.72734375 -21.28414063 39.8765625 -22 39 C-22.66 38.34 -23.32 37.68 -24 37 C-24.38466182 33.88336503 -24.50708987 30.78843551 -24.65625 27.65234375 C-24.7696875 26.77707031 -24.883125 25.90179688 -25 25 C-25.66 24.67 -26.32 24.34 -27 24 C-27 23.01 -27 22.02 -27 21 C-26.34 20.67 -25.68 20.34 -25 20 C-24.89949713 17.96038286 -24.87034832 15.91708649 -24.875 13.875 C-24.54251374 9.22530751 -24.18916501 6.13839175 -20.9375 2.6875 C-14.77987188 -1.75534561 -7.13693359 -1.2577383 0 0 Z " fill="#1E5762" transform="translate(318,258)"/>
<path d="M0 0 C8.58 0 17.16 0 26 0 C26 2.31 26 4.62 26 7 C19.4 7 12.8 7 6 7 C6 10.96 6 14.92 6 19 C11.28 19 16.56 19 22 19 C22 20.98 22 22.96 22 25 C21 26 21 26 17.62109375 26.09765625 C16.22652923 26.09098369 14.83198257 26.07902532 13.4375 26.0625 C12.72658203 26.05798828 12.01566406 26.05347656 11.28320312 26.04882812 C9.52209987 26.03700864 7.76103964 26.01907263 6 26 C6 29.96 6 33.92 6 38 C12.6 38 19.2 38 26 38 C26 39.98 26 41.96 26 44 C17.42 44 8.84 44 0 44 C-0.375 34.75 -0.375 34.75 -0.47802734 31.85449219 C-0.5136377 31.09297852 -0.54924805 30.33146484 -0.5859375 29.546875 C-0.6173584 28.77182617 -0.6487793 27.99677734 -0.68115234 27.19824219 C-1.03026506 24.79134258 -1.80551104 23.10397705 -3 21 C-2.34 20.34 -1.68 19.68 -1 19 C-0.63105418 16.96939341 -0.63105418 16.96939341 -0.5859375 14.6484375 C-0.55032715 13.88192871 -0.5147168 13.11541992 -0.47802734 12.32568359 C-0.44402832 11.35195801 -0.4100293 10.37823242 -0.375 9.375 C-0.25125 6.28125 -0.1275 3.1875 0 0 Z " fill="#1F5761" transform="translate(71,258)"/>
<path d="M0 0 C2.31 0 4.62 0 7 0 C6.54762239 1.91808109 6.08785537 3.83442033 5.625 5.75 C5.24214844 7.35101563 5.24214844 7.35101563 4.8515625 8.984375 C4.12148729 11.56977894 3.21421378 13.62914292 2 16 C1.83328148 18.5417707 1.83328148 18.5417707 2 21 C2 21.99 2 22.98 2 24 C1.41734375 24.55171875 0.8346875 25.1034375 0.234375 25.671875 C-2.78681038 28.8198234 -4.10471851 32.25330762 -5.75 36.25 C-6.06582031 36.99507813 -6.38164062 37.74015625 -6.70703125 38.5078125 C-7.48002817 40.33489612 -8.24121095 42.16697027 -9 44 C-11.31 44 -13.62 44 -16 44 C-21.05005385 32.26151606 -21.05005385 32.26151606 -22 27.875 C-22.71889502 24.77255581 -22.71889502 24.77255581 -25.625 23.5625 C-26.40875 23.376875 -27.1925 23.19125 -28 23 C-27.78472656 22.14792969 -27.56945312 21.29585938 -27.34765625 20.41796875 C-26.92913995 16.30334219 -27.81854145 14.09006996 -29.4375 10.3125 C-32 4.25885559 -32 4.25885559 -32 1 C-29.69 1 -27.38 1 -25 1 C-20.82602586 11.60935214 -16.75575801 22.23464754 -13 33 C-9.50896053 25.48083806 -6.61255507 17.78684736 -3.74560547 10.01513672 C-2.50877087 6.67236239 -1.2535291 3.33654482 0 0 Z " fill="#1F5762" transform="translate(139,258)"/>
<path d="M0 0 C14 0 14 0 18 3 C18.51757812 5.48022461 18.51757812 5.48022461 18.53125 8.40234375 C18.53640625 9.45744141 18.5415625 10.51253906 18.546875 11.59960938 C18.53140625 12.70111328 18.5159375 13.80261719 18.5 14.9375 C18.51546875 16.03513672 18.5309375 17.13277344 18.546875 18.26367188 C18.54171875 19.32005859 18.5365625 20.37644531 18.53125 21.46484375 C18.52673828 22.430271 18.52222656 23.39569824 18.51757812 24.39038086 C18 27 18 27 14 31 C9.38 31 4.76 31 0 31 C0 20.77 0 10.54 0 0 Z " fill="#FCCA48" transform="translate(31,265)"/>
<path d="M0 0 C4.39656173 -0.02465504 8.7930872 -0.04283842 13.18969727 -0.05493164 C14.68644918 -0.05997121 16.18319616 -0.06680287 17.67993164 -0.07543945 C19.82699807 -0.08752159 21.97399962 -0.09323191 24.12109375 -0.09765625 C26.06133423 -0.10551147 26.06133423 -0.10551147 28.04077148 -0.11352539 C31 0 31 0 32 1 C32 2.98 32 4.96 32 7 C27.71 7 23.42 7 19 7 C19.12375 9.083125 19.2475 11.16625 19.375 13.3125 C19.44460937 14.48425781 19.51421875 15.65601563 19.5859375 16.86328125 C19.78613747 20.15699887 19.78613747 20.15699887 22 23 C21.34 23.66 20.68 24.32 20 25 C19.63105418 27.03060659 19.63105418 27.03060659 19.5859375 29.3515625 C19.54726562 30.20234375 19.50859375 31.053125 19.46875 31.9296875 C19.42234375 33.26386719 19.42234375 33.26386719 19.375 34.625 C19.33632812 35.5221875 19.29765625 36.419375 19.2578125 37.34375 C19.16340643 39.5622927 19.07783252 41.78082403 19 44 C16.69 44 14.38 44 12 44 C12 37.4 12 30.8 12 24 C11.01 23.67 10.02 23.34 9 23 C9.66 22.01 10.32 21.02 11 20 C11.4603764 16.80193335 11.4603764 16.80193335 11.625 13.3125 C11.69976562 12.13300781 11.77453125 10.95351563 11.8515625 9.73828125 C11.90054688 8.83464844 11.94953125 7.93101562 12 7 C8.04 7 4.08 7 0 7 C0 4.69 0 2.38 0 0 Z " fill="#285C61" transform="translate(200,258)"/>
<path d="M0 0 C2.10304477 -0.1080023 4.20766909 -0.18558987 6.3125 -0.25 C8.07013672 -0.31960938 8.07013672 -0.31960938 9.86328125 -0.390625 C13 0 13 0 14.92578125 1.85546875 C16 4 16 4 15.875 6.5625 C14.90075327 9.27647303 14.30331986 10.29092684 12 12 C7.96740923 12.40487859 4.06287095 12.13106035 0 12 C0 8.04 0 4.08 0 0 Z " fill="#F7CC58" transform="translate(393,265)"/>
<path d="M0 0 C2.57966596 2.57966596 3.33609844 5.09307892 4.625 8.5 C5.07101562 9.6653125 5.51703125 10.830625 5.9765625 12.03125 C7 15 7 15 7 17 C2.71 17 -1.58 17 -6 17 C-5.22959873 13.14799367 -4.34150247 9.89967584 -3 6.25 C-2.649375 5.28578125 -2.29875 4.3215625 -1.9375 3.328125 C-1 1 -1 1 0 0 Z " fill="#EFC653" transform="translate(260,268)"/>
<path d="M0 0 C2.0625 0.4375 2.0625 0.4375 4 1 C4 2.65 4 4.3 4 6 C2.125 6.625 2.125 6.625 0 7 C-0.66 6.34 -1.32 5.68 -2 5 C-1.46428571 1.46428571 -1.46428571 1.46428571 0 0 Z " fill="#E5C153" transform="translate(158,183)"/>
<path d="M0 0 C2.125 0.375 2.125 0.375 4 1 C4.5625 2.9375 4.5625 2.9375 5 5 C4 6 4 6 1.4375 6.0625 C0.2309375 6.0315625 0.2309375 6.0315625 -1 6 C-1.625 4.125 -1.625 4.125 -2 2 C-1.34 1.34 -0.68 0.68 0 0 Z " fill="#E6C359" transform="translate(277,166)"/>
<path d="M0 0 C2.625 0.375 2.625 0.375 5 1 C4.67 2.65 4.34 4.3 4 6 C2.35 6 0.7 6 -1 6 C-1.625 4.125 -1.625 4.125 -2 2 C-1.34 1.34 -0.68 0.68 0 0 Z " fill="#E7C45A" transform="translate(290,153)"/>
<path d="M0 0 C2.625 0.375 2.625 0.375 5 1 C4.67 2.65 4.34 4.3 4 6 C2.35 6 0.7 6 -1 6 C-1.625 4.125 -1.625 4.125 -2 2 C-1.34 1.34 -0.68 0.68 0 0 Z " fill="#E8C459" transform="translate(277,140)"/>
<path d="M0 0 C2.125 0.375 2.125 0.375 4 1 C4.5625 2.9375 4.5625 2.9375 5 5 C4 6 4 6 1.4375 6.0625 C0.2309375 6.0315625 0.2309375 6.0315625 -1 6 C-1.625 4.125 -1.625 4.125 -2 2 C-1.34 1.34 -0.68 0.68 0 0 Z " fill="#E7C45A" transform="translate(268,103)"/>
<path d="M0 0 C2.0625 0.4375 2.0625 0.4375 4 1 C4 2.65 4 4.3 4 6 C2.125 6.625 2.125 6.625 0 7 C-0.66 6.34 -1.32 5.68 -2 5 C-1.46428571 1.46428571 -1.46428571 1.46428571 0 0 Z " fill="#EDC552" transform="translate(145,170)"/>
<path d="M0 0 C0.99 0 1.98 0 3 0 C3.33 1.98 3.66 3.96 4 6 C2.125 6.625 2.125 6.625 0 7 C-0.66 6.34 -1.32 5.68 -2 5 C-1.46428571 1.46428571 -1.46428571 1.46428571 0 0 Z " fill="#E9C354" transform="translate(155,111)"/>
<path d="M0 0 C1.65 0.33 3.3 0.66 5 1 C5 2.32 5 3.64 5 5 C3.125 5.625 3.125 5.625 1 6 C0.34 5.34 -0.32 4.68 -1 4 C-0.625 1.875 -0.625 1.875 0 0 Z " fill="#EEC654" transform="translate(223,226)"/>
<path d="M0 0 C1.65 0.33 3.3 0.66 5 1 C4.67 2.65 4.34 4.3 4 6 C2.35 5.67 0.7 5.34 -1 5 C-0.67 3.35 -0.34 1.7 0 0 Z " fill="#F2C957" transform="translate(283,212)"/>
<path d="M0 0 C1.65 0.33 3.3 0.66 5 1 C4.67 2.65 4.34 4.3 4 6 C2.35 5.67 0.7 5.34 -1 5 C-0.67 3.35 -0.34 1.7 0 0 Z " fill="#F6CB57" transform="translate(222,110)"/>
<path d="M0 0 C1.65 0.33 3.3 0.66 5 1 C4.67 2.65 4.34 4.3 4 6 C2.35 5.67 0.7 5.34 -1 5 C-0.67 3.35 -0.34 1.7 0 0 Z " fill="#F0C856" transform="translate(196,110)"/>
<path d="M0 0 C1.65 0.33 3.3 0.66 5 1 C4.67 2.65 4.34 4.3 4 6 C2.35 5.67 0.7 5.34 -1 5 C-0.67 3.35 -0.34 1.7 0 0 Z " fill="#F0C857" transform="translate(209,97)"/>
<path d="M0 0 C2.0625 0.4375 2.0625 0.4375 4 1 C4.5625 2.9375 4.5625 2.9375 5 5 C4 6 4 6 1.4375 6.0625 C0.2309375 6.0315625 0.2309375 6.0315625 -1 6 C-1.042721 4.33388095 -1.04063832 2.66617115 -1 1 C-0.67 0.67 -0.34 0.34 0 0 Z " fill="#F0C751" transform="translate(165,216)"/>
<path d="M0 0 C1.65 0 3.3 0 5 0 C5.625 1.875 5.625 1.875 6 4 C5.34 4.66 4.68 5.32 4 6 C1.875 5.625 1.875 5.625 0 5 C0 3.35 0 1.7 0 0 Z " fill="#F1C855" transform="translate(236,213)"/>
<path d="M0 0 C2.125 0.375 2.125 0.375 4 1 C4 2.65 4 4.3 4 6 C2.35 6 0.7 6 -1 6 C-1.625 4.125 -1.625 4.125 -2 2 C-1.34 1.34 -0.68 0.68 0 0 Z " fill="#F3C852" transform="translate(158,157)"/>
<path d="M0 0 C1.67542976 0.28604898 3.34385343 0.61781233 5 1 C4.67 2.65 4.34 4.3 4 6 C2.68 5.67 1.36 5.34 0 5 C-0.5625 3.0625 -0.5625 3.0625 -1 1 C-0.67 0.67 -0.34 0.34 0 0 Z " fill="#F2C853" transform="translate(210,213)"/>
</svg>
