<?xml version="1.0" encoding="UTF-8"?>
<svg version="1.1" xmlns="http://www.w3.org/2000/svg" width="251" height="248">
<path d="M0 0 C82.83 0 165.66 0 251 0 C251 81.84 251 163.68 251 248 C168.17 248 85.34 248 0 248 C0 166.16 0 84.32 0 0 Z " fill="#06090E" transform="translate(0,0)"/>
<path d="M0 0 C2.26321484 1.05119858 4.05985545 2.27966714 6.0546875 3.76953125 C8.31697865 5.20049854 10.18670646 5.6023529 12.8125 6.0625 C16.77932827 6.78622426 16.77932827 6.78622426 19 8.9375 C20 11 20 11 21 14 C22.68909768 15.58749782 24.48401943 16.97391918 26.30859375 18.40234375 C28.86080355 20.81309157 29.85884776 22.88911354 30.30078125 26.3671875 C30.32544207 31.64460267 30.19044335 35.57454633 27 40 C24.7523934 41.88299486 22.47878222 43.40983782 20 45 C20.14363527 46.37523135 20.29003517 47.75017402 20.4375 49.125 C20.52515625 49.94355469 20.6128125 50.76210937 20.703125 51.60546875 C20.94569617 53.56199673 21.30085553 55.50427767 21.6875 57.4375 C21.8421875 58.7059375 21.8421875 58.7059375 22 60 C21.34 60.66 20.68 61.32 20 62 C17.375 61.625 17.375 61.625 15 61 C14.375 58.625 14.375 58.625 14 56 C14.66 55.34 15.32 54.68 16 54 C16.45811675 52.02764667 16.45811675 52.02764667 16.625 49.875 C16.810625 47.956875 16.810625 47.956875 17 46 C15.906875 45.731875 14.81375 45.46375 13.6875 45.1875 C8.99513382 43.67639903 8.99513382 43.67639903 7 41 C6.70703125 38.73828125 6.70703125 38.73828125 6.8125 36.3125 C6.85310547 35.10013672 6.85310547 35.10013672 6.89453125 33.86328125 C6.92933594 33.24839844 6.96414062 32.63351563 7 32 C7.33 32 7.66 32 8 32 C8.495 36.455 8.495 36.455 9 41 C15.91230197 42.26933021 15.91230197 42.26933021 22.5 40.3125 C25.37066268 37.65713702 26.76429872 35.71113006 27.30078125 31.81640625 C27.32566577 27.03028393 27.18321629 23.81985955 24 20 C22.989375 19.175 21.97875 18.35 20.9375 17.5 C18 15 18 15 17.25 12.3125 C16.8375 11.549375 16.425 10.78625 16 10 C13.50925709 9.28835917 11.0411495 8.91553687 8.48046875 8.53125 C5.21538986 7.83195751 3.37038112 6.29630671 1 4 C-2.70981281 2.14509359 -6.95123393 2.5459909 -11 3 C-14.92971874 5.00058409 -17.84762703 7.12572866 -20 11 C-20.28767225 12.35068972 -20.55695188 13.70536581 -20.8125 15.0625 C-21.2734375 17.17578125 -21.2734375 17.17578125 -22 19 C-24.9375 20.75 -24.9375 20.75 -28 22 C-31.01866212 24.81047853 -31.7596819 27.88566 -32.125 31.97265625 C-31.90509732 35.53920281 -30.34509124 37.41438658 -28 40 C-24.24763838 42.39512444 -21.4419879 43.55524849 -17 43 C-14.98177598 42.39072482 -12.97583715 41.73519522 -11 41 C-10.67 38.36 -10.34 35.72 -10 33 C-9.34 33 -8.68 33 -8 33 C-7.89186814 36.162857 -8.00708582 38.97966944 -9 42 C-11.87973548 44.4113829 -15.20828567 46 -19 46 C-19 48.64 -19 51.28 -19 54 C-17.515 54.495 -17.515 54.495 -16 55 C-15.8125 57.375 -15.8125 57.375 -16 60 C-19 62 -19 62 -21.1875 61.625 C-21.785625 61.41875 -22.38375 61.2125 -23 61 C-23.625 58.625 -23.625 58.625 -24 56 C-23.34 55.34 -22.68 54.68 -22 54 C-21.53993654 51.79749008 -21.53993654 51.79749008 -21.375 49.375 C-21.30023438 48.55773437 -21.22546875 47.74046875 -21.1484375 46.8984375 C-21.07496094 45.95871094 -21.07496094 45.95871094 -21 45 C-22.03125 44.979375 -23.0625 44.95875 -24.125 44.9375 C-28.59310324 43.85650728 -30.10767405 42.66251361 -32.828125 39.09375 C-34.86170945 35.46041245 -35.43123565 32.12962952 -35 28 C-33.64059747 23.75499456 -31.81571297 21.49282659 -28 19.1875 C-24.69140081 16.77497976 -24.35538148 15.8482767 -23.0625 12.125 C-19.23679046 1.19670736 -10.77008233 -1.24949253 0 0 Z " fill="#76F1F6" transform="translate(128,47)"/>
<path d="M0 0 C9 0 9 0 11.52929688 1.62890625 C13.36795783 4.59322816 13.5161971 6.45812926 13.53125 9.9375 C13.53640625 11.07960937 13.5415625 12.22171875 13.546875 13.3984375 C13.53140625 14.58695313 13.5159375 15.77546875 13.5 17 C13.51546875 18.18851563 13.5309375 19.37703125 13.546875 20.6015625 C13.54171875 21.74367187 13.5365625 22.88578125 13.53125 24.0625 C13.52673828 25.10535156 13.52222656 26.14820313 13.51757812 27.22265625 C13 30 13 30 11.52929688 32.37109375 C9 34 9 34 0 34 C0 22.78 0 11.56 0 0 Z " fill="#70FCFD" transform="translate(45,152)"/>
<path d="M0 0 C3.3 0 6.6 0 10 0 C13 3 13 3 13.37231445 5.11303711 C13.3693335 5.9097583 13.36635254 6.70647949 13.36328125 7.52734375 C13.36263672 8.40197266 13.36199219 9.27660156 13.36132812 10.17773438 C13.34521484 11.08845703 13.32910156 11.99917969 13.3125 12.9375 C13.31572266 13.84435547 13.31894531 14.75121094 13.32226562 15.68554688 C13.26720519 22.48801371 13.26720519 22.48801371 11.92651367 25.05688477 C10.40241161 28.25328221 11.8938983 30.8045951 13 34 C11.35 34 9.7 34 8 34 C6.5393715 31.35261084 6 30.10551666 6 27 C5.34 27 4.68 27 4 27 C4 29.31 4 31.62 4 34 C2.68 34 1.36 34 0 34 C0 22.78 0 11.56 0 0 Z " fill="#6EF9FB" transform="translate(194,152)"/>
<path d="M0 0 C1.4540625 0.0309375 1.4540625 0.0309375 2.9375 0.0625 C3.79547485 4.56420578 4.64987714 9.06656935 5.50097656 13.56958008 C5.79101045 15.10134181 6.08201953 16.63291924 6.37402344 18.16430664 C6.79358359 20.36557037 7.20963173 22.5674732 7.625 24.76953125 C7.75624268 25.45400833 7.88748535 26.13848541 8.02270508 26.84370422 C8.54679491 29.6378614 8.9375 32.21150304 8.9375 35.0625 C7.2875 35.0625 5.6375 35.0625 3.9375 35.0625 C3.2775 31.4325 2.6175 27.8025 1.9375 24.0625 C0.2875 23.7325 -1.3625 23.4025 -3.0625 23.0625 C-3.041875 24.3 -3.02125 25.5375 -3 26.8125 C-2.99483319 29.7265825 -3.13234442 32.27203327 -4.0625 35.0625 C-5.7125 35.0625 -7.3625 35.0625 -9.0625 35.0625 C-8.37403175 30.23791176 -7.6801631 25.41414362 -6.98120117 20.59106445 C-6.74402353 18.94902789 -6.50834258 17.30677444 -6.27416992 15.66430664 C-5.93798574 13.30817439 -5.59648705 10.95286581 -5.25390625 8.59765625 C-5.14969864 7.85910904 -5.04549103 7.12056183 -4.93812561 6.3596344 C-4.01553087 0.08194961 -4.01553087 0.08194961 0 0 Z " fill="#6AF4F6" transform="translate(142.0625,150.9375)"/>
<path d="M0 0 C1.98 0 3.96 0 6 0 C4 6 4 6 2.75 8.5390625 C1.62613689 13.72522248 3.27872638 17.78457013 4.875 22.75 C5.45753793 24.64006847 6.03835554 26.53066829 6.6171875 28.421875 C6.88128418 29.25299805 7.14538086 30.08412109 7.41748047 30.94042969 C8 33 8 33 8 35 C6.35 35 4.7 35 3 35 C2.32678716 32.75194998 1.66165877 30.50147776 1 28.25 C0.62875 26.99703125 0.2575 25.7440625 -0.125 24.453125 C-1 21 -1 21 -1 17 C-1.66 17 -2.32 17 -3 17 C-3 22.94 -3 28.88 -3 35 C-4.32 35 -5.64 35 -7 35 C-7 23.78 -7 12.56 -7 1 C-5.68 1 -4.36 1 -3 1 C-2.67 2.32 -2.34 3.64 -2 5 C-1.34 3.35 -0.68 1.7 0 0 Z " fill="#6EFCFD" transform="translate(181,151)"/>
<path d="M0 0 C1.65 0 3.3 0 5 0 C5.66 3.96 6.32 7.92 7 12 C8.17076699 8.01939223 9.25749403 4.08378283 10 0 C11.32 0 12.64 0 14 0 C14.26387939 7.71022591 13.24491122 14.96265347 12 22.5625 C11.80921875 23.76197266 11.6184375 24.96144531 11.421875 26.19726562 C10.95409888 29.13256081 10.48000299 32.06668387 10 35 C8.35 35 6.7 35 5 35 C3.22530708 23.34618318 1.50577629 11.69191001 0 0 Z " fill="#69F5F8" transform="translate(79,151)"/>
<path d="M0 0 C3.0625 0.5 3.0625 0.5 5.4375 2.625 C7.284121 5.89209869 7.4059538 7.80787163 7.0625 11.5 C5.4125 11.83 3.7625 12.16 2.0625 12.5 C2.0625 10.19 2.0625 7.88 2.0625 5.5 C1.0725 5.83 0.0825 6.16 -0.9375 6.5 C-0.827769 11.65735702 0.2417854 14.00860562 3.625 17.9375 C6.08723365 20.90532578 7.57702803 22.83929237 7.6875 26.75 C6.67938312 32.7987013 6.67938312 32.7987013 4.0625 35.5 C0.60335703 35.99416328 -1.7305558 36.12293894 -4.875 34.5 C-6.61028693 31.23357754 -6.11732715 28.15648548 -5.9375 24.5 C-4.6175 24.5 -3.2975 24.5 -1.9375 24.5 C-1.6075 26.48 -1.2775 28.46 -0.9375 30.5 C-0.2775 30.5 0.3825 30.5 1.0625 30.5 C1.46420319 27.80285 1.64076651 26.12892589 1.0625 23.5 C-0.49759453 21.35259598 -0.49759453 21.35259598 -2.4375 19.25 C-6.20811586 14.80769549 -6.65598268 11.60794735 -6.4765625 5.8828125 C-5.56823703 1.86775062 -3.99336731 0.6797221 0 0 Z " fill="#6DF8FA" transform="translate(104.9375,150.5)"/>
<path d="M0 0 C3.63 0 7.26 0 11 0 C11 1.65 11 3.3 11 5 C9.02 5 7.04 5 5 5 C5 7.31 5 9.62 5 12 C6.98 12 8.96 12 11 12 C11 13.65 11 15.3 11 17 C9.02 17 7.04 17 5 17 C5 21.62 5 26.24 5 31 C6.98 31 8.96 31 11 31 C11 32.32 11 33.64 11 35 C7.37 35 3.74 35 0 35 C0 23.45 0 11.9 0 0 Z " fill="#6AF0F4" transform="translate(63,151)"/>
<path d="M0 0 C1.9375 1.75 1.9375 1.75 3 4 C3 5.32 3 6.64 3 8 C1.35 8 -0.3 8 -2 8 C-2.33 7.01 -2.66 6.02 -3 5 C-3.66 5 -4.32 5 -5 5 C-5 12.59 -5 20.18 -5 28 C-4.34 28.33 -3.68 28.66 -3 29 C-2.34 27.35 -1.68 25.7 -1 24 C0.32 24 1.64 24 3 24 C3.32152515 27.53677664 3.4131192 29.3962104 1.375 32.375 C-1.69371124 34.47464453 -3.35392711 34.62060815 -7 34 C-9.29284205 31.7270693 -9.95504978 30.33407342 -10.38818359 27.11499023 C-10.39156738 26.02387939 -10.39495117 24.93276855 -10.3984375 23.80859375 C-10.40230469 22.61685547 -10.40617188 21.42511719 -10.41015625 20.19726562 C-10.39855469 18.95654297 -10.38695312 17.71582031 -10.375 16.4375 C-10.39240234 14.57061523 -10.39240234 14.57061523 -10.41015625 12.66601562 C-10.40628906 11.47556641 -10.40242187 10.28511719 -10.3984375 9.05859375 C-10.39505371 7.96861084 -10.39166992 6.87862793 -10.38818359 5.75561523 C-10 3 -10 3 -8.69384766 1.14868164 C-5.80929292 -0.8074772 -3.35438925 -0.41929866 0 0 Z " fill="#70F7F9" transform="translate(166,152)"/>
<path d="M0 0 C5.61 0 11.22 0 17 0 C17 1.65 17 3.3 17 5 C15.02 5 13.04 5 11 5 C11 14.9 11 24.8 11 35 C9.68 35 8.36 35 7 35 C7 25.1 7 15.2 7 5 C4.69 5 2.38 5 0 5 C0 3.35 0 1.7 0 0 Z " fill="#72F8F9" transform="translate(115,151)"/>
<path d="M0 0 C0.66 0 1.32 0 2 0 C1.95359375 0.58007812 1.9071875 1.16015625 1.859375 1.7578125 C1.59950972 7.38203957 2.06245492 10.64797649 6 15 C9.75236162 17.39512444 12.5580121 18.55524849 17 18 C19.01822402 17.39072482 21.02416285 16.73519522 23 16 C23.33 13.36 23.66 10.72 24 8 C24.66 8 25.32 8 26 8 C26.10813186 11.162857 25.99291418 13.97966944 25 17 C22.12026452 19.4113829 18.79171433 21 15 21 C15 23.64 15 26.28 15 29 C15.99 29.33 16.98 29.66 18 30 C18.1875 32.375 18.1875 32.375 18 35 C15 37 15 37 12.8125 36.625 C12.214375 36.41875 11.61625 36.2125 11 36 C10.375 33.625 10.375 33.625 10 31 C10.66 30.34 11.32 29.68 12 29 C12.46006346 26.79749008 12.46006346 26.79749008 12.625 24.375 C12.69976562 23.55773437 12.77453125 22.74046875 12.8515625 21.8984375 C12.90054688 21.27195312 12.94953125 20.64546875 13 20 C11.453125 19.9690625 11.453125 19.9690625 9.875 19.9375 C5.40550905 18.85617154 3.90647397 17.65395574 1.16015625 14.109375 C-0.78368167 10.57512424 -1.17807164 6.99499854 -1 3 C-0.67 2.01 -0.34 1.02 0 0 Z " fill="#75F2F6" transform="translate(94,72)"/>
<path d="M0 0 C2.26321484 1.05119858 4.05985545 2.27966714 6.0546875 3.76953125 C8.31697865 5.20049854 10.18670646 5.6023529 12.8125 6.0625 C16.77932827 6.78622426 16.77932827 6.78622426 19 8.9375 C20 11 20 11 21 14 C22.29355827 15.37195574 23.62298702 16.71182656 25 18 C21.4065708 18 20.58029579 17.41382509 18 15 C17.79375 14.154375 17.5875 13.30875 17.375 12.4375 C16.26341895 9.80167842 16.26341895 9.80167842 13.83203125 9.375 C12.05035836 9.08024762 10.26635972 8.7992625 8.48046875 8.53125 C5.21538986 7.83195751 3.37038112 6.29630671 1 4 C-2.70981281 2.14509359 -6.95123393 2.5459909 -11 3 C-14.92971874 5.00058409 -17.84762703 7.12572866 -20 11 C-20.28767225 12.35068972 -20.55695188 13.70536581 -20.8125 15.0625 C-21.27734375 17.17578125 -21.27734375 17.17578125 -22 19 C-24.875 20.75 -24.875 20.75 -28 22 C-30.31418291 24.06167261 -30.31418291 24.06167261 -32 26 C-32.33 25.34 -32.66 24.68 -33 24 C-29.46112839 19.19724567 -29.46112839 19.19724567 -26.97265625 18.1328125 C-24.28974774 16.59213237 -24.08399429 15.16471049 -23.1875 12.25 C-19.20765431 1.29353239 -10.91937357 -1.26681257 0 0 Z " fill="#73EDF3" transform="translate(128,47)"/>
<path d="M0 0 C0.66 0 1.32 0 2 0 C2.00410889 0.62044189 2.00821777 1.24088379 2.01245117 1.88012695 C2.0453511 4.69188664 2.11598648 7.50146855 2.1875 10.3125 C2.19330078 11.28896484 2.19910156 12.26542969 2.20507812 13.27148438 C2.28760674 15.93990973 2.40754555 18.39584888 3 21 C5.33309215 23.13618264 5.33309215 23.13618264 8 24 C9.74899588 27.49799176 9.36915932 31.71647498 9.51757812 35.58984375 C9.61361553 39.74774557 9.61361553 39.74774557 12 43 C11.625 45.625 11.625 45.625 11 48 C6.25 49.125 6.25 49.125 4 48 C4 46.02 4 44.04 4 42 C5.485 41.505 5.485 41.505 7 41 C6.99397633 38.57848587 6.94656312 36.16972788 6.875 33.75 C6.87886719 32.72712891 6.87886719 32.72712891 6.8828125 31.68359375 C6.85220409 29.37360545 6.85220409 29.37360545 6 26 C4.9996875 25.4121875 3.999375 24.824375 2.96875 24.21875 C0 22 0 22 -0.49169922 19.63769531 C-0.5906252 16.65556402 -0.5224892 13.73003823 -0.375 10.75 C-0.34792969 9.71875 -0.32085937 8.6875 -0.29296875 7.625 C-0.22230799 5.0812125 -0.12372078 2.54166901 0 0 Z " fill="#63E7EF" transform="translate(130,70)"/>
<path d="M0 0 C2.97 0 5.94 0 9 0 C9.66 1.32 10.32 2.64 11 4 C10.01 4.99 9.02 5.98 8 7 C8 6.34 8 5.68 8 5 C6.68 4.67 5.36 4.34 4 4 C4 10.6 4 17.2 4 24 C2.68 24.33 1.36 24.66 0 25 C0 16.75 0 8.5 0 0 Z " fill="#73FDFE" transform="translate(45,152)"/>
<path d="M0 0 C0.66 0 1.32 0 2 0 C2 11.22 2 22.44 2 34 C2.99 34.33 3.98 34.66 5 35 C5.125 37.375 5.125 37.375 5 40 C4.34 40.66 3.68 41.32 3 42 C-1.55555556 41.44444444 -1.55555556 41.44444444 -3 40 C-3.04063832 38.33382885 -3.042721 36.66611905 -3 35 C-1.515 34.505 -1.515 34.505 0 34 C0 22.78 0 11.56 0 0 Z " fill="#67F8FD" transform="translate(126,62)"/>
<path d="M0 0 C1.32 0.33 2.64 0.66 4 1 C5.81948976 4.63897951 5.18470453 8.93159288 5.1875 12.9375 C5.19974609 13.85724609 5.21199219 14.77699219 5.22460938 15.72460938 C5.22654297 16.60826172 5.22847656 17.49191406 5.23046875 18.40234375 C5.23457764 19.21179443 5.23868652 20.02124512 5.24291992 20.85522461 C5 23 5 23 3 26 C2.01 26 1.02 26 0 26 C0 17.42 0 8.84 0 0 Z " fill="#061115" transform="translate(49,156)"/>
<path d="M0 0 C0.66 0 1.32 0 2 0 C2.11601004 3.60389664 2.18718408 7.20731467 2.25 10.8125 C2.28351563 11.83666016 2.31703125 12.86082031 2.3515625 13.91601562 C2.36445312 14.89892578 2.37734375 15.88183594 2.390625 16.89453125 C2.41157227 17.80050049 2.43251953 18.70646973 2.45410156 19.63989258 C2 22 2 22 0.10058594 23.8190918 C-2 25 -2 25 -4 25 C-3.8863485 27.62594784 -3.75960946 30.25011547 -3.625 32.875 C-3.5940625 33.62136719 -3.563125 34.36773437 -3.53125 35.13671875 C-3.44356169 39.53473188 -3.44356169 39.53473188 -1 43 C-1.375 45.625 -1.375 45.625 -2 48 C-4.475 48.495 -4.475 48.495 -7 49 C-7.33 48.34 -7.66 47.68 -8 47 C-6.68 47 -5.36 47 -4 47 C-4 46.01 -4 45.02 -4 44 C-5.65 43.67 -7.3 43.34 -9 43 C-8.34 42.01 -7.68 41.02 -7 40 C-6.69933846 37.24582682 -6.49074701 34.57354853 -6.375 31.8125 C-6.33632812 31.06291016 -6.29765625 30.31332031 -6.2578125 29.54101562 C-6.16371784 27.69440801 -6.08077681 25.8472381 -6 24 C-4.02 23.34 -2.04 22.68 0 22 C0 14.74 0 7.48 0 0 Z " fill="#6EF9FD" transform="translate(122,70)"/>
<path d="M0 0 C1.32 0 2.64 0 4 0 C4 5.94 4 11.88 4 18 C2.68 18.33 1.36 18.66 0 19 C0 12.73 0 6.46 0 0 Z " fill="#071014" transform="translate(198,156)"/>
<path d="M0 0 C5.75 1.75 5.75 1.75 8 4 C10.10088214 4.52952378 10.10088214 4.52952378 12.4375 4.875 C16.74516362 5.75312725 16.74516362 5.75312725 19 7.9375 C20 10 20 10 21 13 C22.29355827 14.37195574 23.62298702 15.71182656 25 17 C21.4065708 17 20.58029579 16.41382509 18 14 C17.79375 13.154375 17.5875 12.30875 17.375 11.4375 C16.26341895 8.80167842 16.26341895 8.80167842 13.83203125 8.375 C12.05015784 8.08021444 10.26618075 7.79790617 8.48046875 7.52734375 C4.23792134 6.62538485 1.9587644 3.9587644 -1 1 C-0.67 0.67 -0.34 0.34 0 0 Z " fill="#74F0F5" transform="translate(128,48)"/>
<path d="M0 0 C0.99 0 1.98 0 3 0 C5.42857143 8.42857143 5.42857143 8.42857143 4 13 C1.625 13.625 1.625 13.625 -1 14 C-1.66 13.34 -2.32 12.68 -3 12 C-2.53128597 7.8987522 -1.16243456 3.95227751 0 0 Z " fill="#357F89" transform="translate(145,95)"/>
<path d="M0 0 C0.33 0.66 0.66 1.32 1 2 C1.99 2.33 2.98 2.66 4 3 C4.125 5.375 4.125 5.375 4 8 C3.34 8.66 2.68 9.32 2 10 C-2.55555556 9.44444444 -2.55555556 9.44444444 -4 8 C-4.3125 5.625 -4.3125 5.625 -4 3 C-2 1.1875 -2 1.1875 0 0 Z " fill="#42959C" transform="translate(127,94)"/>
<path d="M0 0 C1.98 0 3.96 0 6 0 C4.84414715 3.91211733 3.64465038 6.8745041 1 10 C-0.32 9.01 -1.64 8.02 -3 7 C-2.01 4.69 -1.02 2.38 0 0 Z " fill="#62E3E9" transform="translate(181,151)"/>
<path d="M0 0 C0.33 0 0.66 0 1 0 C1.04898438 1.05960937 1.09796875 2.11921875 1.1484375 3.2109375 C1.22346709 4.59898497 1.29901485 5.98700451 1.375 7.375 C1.4059375 8.07367188 1.436875 8.77234375 1.46875 9.4921875 C1.59499498 13.70185827 1.59499498 13.70185827 4 17 C3.625 19.625 3.625 19.625 3 22 C1.35 22.33 -0.3 22.66 -2 23 C-2.33 22.34 -2.66 21.68 -3 21 C-1.68 21 -0.36 21 1 21 C1 20.01 1 19.02 1 18 C-0.65 17.67 -2.3 17.34 -4 17 C-3.01 15.515 -3.01 15.515 -2 14 C-1.34 14 -0.68 14 0 14 C0 9.38 0 4.76 0 0 Z " fill="#5FDFEA" transform="translate(117,96)"/>
<path d="M0 0 C0.33 0 0.66 0 1 0 C1 1.98 1 3.96 1 6 C1.99 6.33 2.98 6.66 4 7 C4 8.65 4 10.3 4 12 C2.02 12.99 2.02 12.99 0 14 C-2 11 -2 11 -1.7578125 8.30078125 C-1.54898438 7.31464844 -1.34015625 6.32851562 -1.125 5.3125 C-0.92132813 4.31863281 -0.71765625 3.32476562 -0.5078125 2.30078125 C-0.34023437 1.54152344 -0.17265625 0.78226562 0 0 Z " fill="#48A5AB" transform="translate(108,95)"/>
<path d="M0 0 C1.67542976 0.28604898 3.34385343 0.61781233 5 1 C4.67 2.65 4.34 4.3 4 6 C-0.75 7.125 -0.75 7.125 -3 6 C-1.125 1.125 -1.125 1.125 0 0 Z " fill="#4BA6AD" transform="translate(137,112)"/>
<path d="M0 0 C0.66 0 1.32 0 2 0 C1.97679688 0.59167969 1.95359375 1.18335937 1.9296875 1.79296875 C1.82588536 6.33801959 1.86291643 9.85940059 4 14 C3.01 14 2.02 14 1 14 C-1.61895048 9.22426677 -0.83119431 5.15565119 0 0 Z " fill="#6CE3EB" transform="translate(94,72)"/>
<path d="M0 0 C0.99 0.33 1.98 0.66 3 1 C2.67 2.65 2.34 4.3 2 6 C-0.375 6.625 -0.375 6.625 -3 7 C-3.66 6.34 -4.32 5.68 -5 5 C-5 3.68 -5 2.36 -5 1 C-4.34 1 -3.68 1 -3 1 C-2.67 1.99 -2.34 2.98 -2 4 C-1.34 4 -0.68 4 0 4 C0 2.68 0 1.36 0 0 Z " fill="#6EF0F5" transform="translate(147,102)"/>
<path d="M0 0 C0.33 0 0.66 0 1 0 C1.33 2.97 1.66 5.94 2 9 C5.96 9.99 5.96 9.99 10 11 C9.01 12.485 9.01 12.485 8 14 C2.25 11.25 2.25 11.25 0 9 C-0.1953125 6.8359375 -0.1953125 6.8359375 -0.125 4.375 C-0.10695312 3.55773437 -0.08890625 2.74046875 -0.0703125 1.8984375 C-0.04710937 1.27195312 -0.02390625 0.64546875 0 0 Z " fill="#65E5EC" transform="translate(135,79)"/>
<path d="M0 0 C0.66 0 1.32 0 2 0 C1.67 2.97 1.34 5.94 1 9 C-0.65 9.66 -2.3 10.32 -4 11 C-4.66 10.34 -5.32 9.68 -6 9 C-4.35 8.67 -2.7 8.34 -1 8 C-0.67 5.36 -0.34 2.72 0 0 Z " fill="#62E0E9" transform="translate(118,80)"/>
<path d="M0 0 C0.66 0 1.32 0 2 0 C2.33 3.3 2.66 6.6 3 10 C1.68 10 0.36 10 -1 10 C-0.67 6.7 -0.34 3.4 0 0 Z " fill="#0A171D" transform="translate(141,160)"/>
<path d="M0 0 C1.2065625 0.0309375 1.2065625 0.0309375 2.4375 0.0625 C2.7675 0.7225 3.0975 1.3825 3.4375 2.0625 C3.1075 2.7225 2.7775 3.3825 2.4375 4.0625 C-0.125 4.6875 -0.125 4.6875 -2.5625 5.0625 C-3.125 3.125 -3.125 3.125 -3.5625 1.0625 C-2.5625 0.0625 -2.5625 0.0625 0 0 Z " fill="#327077" transform="translate(115.5625,112.9375)"/>
<path d="M0 0 C5.66153846 1.47692308 5.66153846 1.47692308 7.375 4.125 C7.58125 4.74375 7.7875 5.3625 8 6 C4.00095031 6 2.19799578 4.27413033 -1 2 C-0.67 1.34 -0.34 0.68 0 0 Z " fill="#65DBE4" transform="translate(128,48)"/>
<path d="M0 0 C1.65 0 3.3 0 5 0 C4.6875 1.875 4.6875 1.875 4 4 C3.01 4.66 2.02 5.32 1 6 C0.67 4.02 0.34 2.04 0 0 Z " fill="#64D6DE" transform="translate(79,151)"/>
<path d="M0 0 C0 0.66 0 1.32 0 2 C-1.63260714 3.37482707 -3.30225062 4.70647667 -5 6 C-5.66 6.66 -6.32 7.32 -7 8 C-7.33 7.34 -7.66 6.68 -8 6 C-3.38461538 0 -3.38461538 0 0 0 Z " fill="#79FEFF" transform="translate(103,65)"/>
<path d="M0 0 C2.475 0.495 2.475 0.495 5 1 C5 2.65 5 4.3 5 6 C3.68 6.33 2.36 6.66 1 7 C1.20625 6.21625 1.4125 5.4325 1.625 4.625 C1.74875 3.75875 1.8725 2.8925 2 2 C1.34 1.34 0.68 0.68 0 0 Z " fill="#6FF4F8" transform="translate(126,96)"/>
<path d="M0 0 C0.66 0 1.32 0 2 0 C2 3.3 2 6.6 2 10 C1.67 10 1.34 10 1 10 C0.63883954 8.5225254 0.28624952 7.04295325 -0.0625 5.5625 C-0.25972656 4.73878906 -0.45695313 3.91507812 -0.66015625 3.06640625 C-0.82837891 2.04353516 -0.82837891 2.04353516 -1 1 C-0.67 0.67 -0.34 0.34 0 0 Z " fill="#7DFBFD" transform="translate(145,90)"/>
</svg>
